<svg width="33" height="38" viewBox="0 0 33 38" fill="none" xmlns="http://www.w3.org/2000/svg">
<path d="M8.17296 12.237C8.17296 10.8762 8.17296 9.51552 8.17296 8.15479C8.26367 5.07049 9.6244 2.62118 12.3458 1.07903C17.3352 -1.82385 23.7759 1.44189 24.4109 7.15693C24.5924 8.51765 24.5016 9.87838 24.5016 11.2391C24.5016 11.5112 24.5016 11.8741 24.5016 12.237C24.6831 12.237 24.8645 12.237 24.9552 12.237C26.9509 12.237 29.0374 12.237 31.0331 12.237C32.1217 12.237 32.666 12.872 32.5753 13.9605C32.2124 17.2263 31.7588 20.492 31.396 23.7578C31.0331 27.0235 30.6703 30.2892 30.2167 33.4643C29.8538 36.0043 27.6767 37.9093 25.0459 38C24.9552 38 24.8645 38 24.7738 38C19.1495 38 13.4344 38 7.8101 38C5.17937 38 2.9115 36.2764 2.45792 33.7364C2.18578 32.5571 2.09506 31.2871 2.00435 30.1078C1.64149 27.1142 1.27863 24.1206 0.915768 21.127C0.643623 18.6777 0.280763 16.2284 0.00861864 13.7791C-0.0820963 12.872 0.552908 12.237 1.46006 12.237C3.5465 12.237 5.54223 12.237 7.62867 12.237C7.8101 12.237 7.90082 12.237 8.17296 12.237ZM21.7802 12.237C21.7802 10.7855 21.7802 9.33409 21.7802 7.97336C21.7802 7.79193 21.7802 7.51979 21.6895 7.33836C21.3266 4.70763 18.968 2.7119 16.3373 2.7119C13.7066 2.7119 11.2573 4.70763 10.9851 7.24764C10.8037 8.7898 10.8944 10.332 10.8944 11.7834C10.8944 11.8741 10.8944 11.9648 10.8944 12.1462C14.523 12.237 18.1516 12.237 21.7802 12.237ZM10.8944 16.3191C10.8944 15.5934 10.2594 14.9584 9.53368 14.9584C8.80796 14.9584 8.17296 15.5934 8.17296 16.3191C8.17296 17.0449 8.80796 17.6799 9.53368 17.6799C10.2594 17.6799 10.8944 17.0449 10.8944 16.3191ZM23.1409 17.6799C23.8666 17.6799 24.5016 17.0449 24.5016 16.3191C24.5016 15.5934 23.8666 14.9584 23.1409 14.9584C22.4152 14.9584 21.7802 15.5934 21.7802 16.3191C21.7802 17.0449 22.3245 17.6799 23.1409 17.6799Z" fill="#c0c48d"/>
</svg>
